<mxfile host="app.diagrams.net" agent="Mozilla/5.0 (Windows NT 10.0; Win64; x64) AppleWebKit/537.36 (KHTML, like Gecko) Chrome/134.0.0.0 Safari/537.36 Edg/134.0.0.0" version="26.1.0" pages="2">
  <diagram name="Página-1" id="H-LFU2YFAGM9lZ-w9dvz">
    <mxGraphModel dx="1489" dy="807" grid="1" gridSize="10" guides="1" tooltips="1" connect="1" arrows="1" fold="1" page="1" pageScale="1" pageWidth="1600" pageHeight="1200" math="0" shadow="0">
      <root>
        <mxCell id="0" />
        <mxCell id="1" parent="0" />
        <mxCell id="eM7sL_aVewU0Ig2lxm11-5" value="Actor" style="shape=umlActor;verticalLabelPosition=bottom;verticalAlign=top;html=1;outlineConnect=0;" vertex="1" parent="1">
          <mxGeometry x="110" y="240" width="30" height="60" as="geometry" />
        </mxCell>
        <mxCell id="eM7sL_aVewU0Ig2lxm11-6" value="" style="endArrow=classic;html=1;rounded=0;" edge="1" parent="1">
          <mxGeometry width="50" height="50" relative="1" as="geometry">
            <mxPoint x="150" y="280" as="sourcePoint" />
            <mxPoint x="200" y="280" as="targetPoint" />
          </mxGeometry>
        </mxCell>
        <mxCell id="eM7sL_aVewU0Ig2lxm11-7" value="Possui conta?" style="ellipse;whiteSpace=wrap;html=1;" vertex="1" parent="1">
          <mxGeometry x="200" y="240" width="120" height="80" as="geometry" />
        </mxCell>
        <mxCell id="eM7sL_aVewU0Ig2lxm11-8" value="" style="endArrow=classic;html=1;rounded=0;" edge="1" parent="1">
          <mxGeometry width="50" height="50" relative="1" as="geometry">
            <mxPoint x="300" y="250" as="sourcePoint" />
            <mxPoint x="341" y="190" as="targetPoint" />
          </mxGeometry>
        </mxCell>
        <mxCell id="eM7sL_aVewU0Ig2lxm11-9" value="" style="endArrow=classic;html=1;rounded=0;" edge="1" parent="1">
          <mxGeometry width="50" height="50" relative="1" as="geometry">
            <mxPoint x="300" y="310" as="sourcePoint" />
            <mxPoint x="340" y="370" as="targetPoint" />
          </mxGeometry>
        </mxCell>
        <mxCell id="eM7sL_aVewU0Ig2lxm11-11" value="Não" style="text;html=1;align=center;verticalAlign=middle;whiteSpace=wrap;rounded=0;" vertex="1" parent="1">
          <mxGeometry x="340" y="160" width="60" height="30" as="geometry" />
        </mxCell>
        <mxCell id="eM7sL_aVewU0Ig2lxm11-12" value="Sim" style="text;html=1;align=center;verticalAlign=middle;whiteSpace=wrap;rounded=0;" vertex="1" parent="1">
          <mxGeometry x="340" y="370" width="60" height="30" as="geometry" />
        </mxCell>
        <mxCell id="eM7sL_aVewU0Ig2lxm11-13" value="Login" style="rounded=0;whiteSpace=wrap;html=1;" vertex="1" parent="1">
          <mxGeometry x="417" y="361.25" width="80" height="47.5" as="geometry" />
        </mxCell>
        <mxCell id="eM7sL_aVewU0Ig2lxm11-14" value="Criar conta" style="rounded=0;whiteSpace=wrap;html=1;" vertex="1" parent="1">
          <mxGeometry x="414" y="145" width="76" height="45" as="geometry" />
        </mxCell>
        <mxCell id="eM7sL_aVewU0Ig2lxm11-15" value="Fazer reservar" style="rounded=0;whiteSpace=wrap;html=1;" vertex="1" parent="1">
          <mxGeometry x="530" y="250" width="120" height="60" as="geometry" />
        </mxCell>
        <mxCell id="eM7sL_aVewU0Ig2lxm11-16" value="Verificar quais quartos estão livres" style="rounded=0;whiteSpace=wrap;html=1;" vertex="1" parent="1">
          <mxGeometry x="710" y="250" width="120" height="60" as="geometry" />
        </mxCell>
        <mxCell id="eM7sL_aVewU0Ig2lxm11-17" value="Pagamento" style="rounded=0;whiteSpace=wrap;html=1;" vertex="1" parent="1">
          <mxGeometry x="880" y="250" width="120" height="60" as="geometry" />
        </mxCell>
        <mxCell id="eM7sL_aVewU0Ig2lxm11-18" value="" style="endArrow=classic;html=1;rounded=0;exitX=1;exitY=1;exitDx=0;exitDy=0;entryX=0;entryY=0;entryDx=0;entryDy=0;" edge="1" parent="1" source="eM7sL_aVewU0Ig2lxm11-14" target="eM7sL_aVewU0Ig2lxm11-15">
          <mxGeometry width="50" height="50" relative="1" as="geometry">
            <mxPoint x="490" y="200" as="sourcePoint" />
            <mxPoint x="533" y="240" as="targetPoint" />
          </mxGeometry>
        </mxCell>
        <mxCell id="eM7sL_aVewU0Ig2lxm11-19" value="" style="endArrow=classic;html=1;rounded=0;entryX=0;entryY=1;entryDx=0;entryDy=0;" edge="1" parent="1" target="eM7sL_aVewU0Ig2lxm11-15">
          <mxGeometry width="50" height="50" relative="1" as="geometry">
            <mxPoint x="497" y="361.25" as="sourcePoint" />
            <mxPoint x="537" y="321.25" as="targetPoint" />
          </mxGeometry>
        </mxCell>
        <mxCell id="eM7sL_aVewU0Ig2lxm11-20" value="" style="endArrow=classic;html=1;rounded=0;exitX=1;exitY=0.5;exitDx=0;exitDy=0;" edge="1" parent="1" source="eM7sL_aVewU0Ig2lxm11-15" target="eM7sL_aVewU0Ig2lxm11-16">
          <mxGeometry width="50" height="50" relative="1" as="geometry">
            <mxPoint x="640" y="290" as="sourcePoint" />
            <mxPoint x="700" y="290" as="targetPoint" />
          </mxGeometry>
        </mxCell>
        <mxCell id="eM7sL_aVewU0Ig2lxm11-21" value="" style="endArrow=classic;html=1;rounded=0;exitX=1;exitY=0.5;exitDx=0;exitDy=0;entryX=0;entryY=0.5;entryDx=0;entryDy=0;" edge="1" parent="1" source="eM7sL_aVewU0Ig2lxm11-16" target="eM7sL_aVewU0Ig2lxm11-17">
          <mxGeometry width="50" height="50" relative="1" as="geometry">
            <mxPoint x="840" y="270" as="sourcePoint" />
            <mxPoint x="890" y="290" as="targetPoint" />
          </mxGeometry>
        </mxCell>
        <mxCell id="eM7sL_aVewU0Ig2lxm11-22" value="Confirmação" style="rounded=0;whiteSpace=wrap;html=1;" vertex="1" parent="1">
          <mxGeometry x="1040" y="250" width="120" height="60" as="geometry" />
        </mxCell>
        <mxCell id="eM7sL_aVewU0Ig2lxm11-24" value="Atualizar banco de dados" style="rounded=0;whiteSpace=wrap;html=1;" vertex="1" parent="1">
          <mxGeometry x="1210" y="250" width="120" height="60" as="geometry" />
        </mxCell>
        <mxCell id="eM7sL_aVewU0Ig2lxm11-25" value="" style="endArrow=classic;html=1;rounded=0;entryX=0;entryY=0.5;entryDx=0;entryDy=0;exitX=1;exitY=0.5;exitDx=0;exitDy=0;exitPerimeter=0;" edge="1" parent="1" source="eM7sL_aVewU0Ig2lxm11-17" target="eM7sL_aVewU0Ig2lxm11-22">
          <mxGeometry width="50" height="50" relative="1" as="geometry">
            <mxPoint x="990" y="390" as="sourcePoint" />
            <mxPoint x="1040" y="340" as="targetPoint" />
          </mxGeometry>
        </mxCell>
        <mxCell id="eM7sL_aVewU0Ig2lxm11-26" value="" style="endArrow=classic;html=1;rounded=0;entryX=0;entryY=0.5;entryDx=0;entryDy=0;" edge="1" parent="1" target="eM7sL_aVewU0Ig2lxm11-24">
          <mxGeometry width="50" height="50" relative="1" as="geometry">
            <mxPoint x="1160" y="280" as="sourcePoint" />
            <mxPoint x="1060" y="410" as="targetPoint" />
          </mxGeometry>
        </mxCell>
        <mxCell id="eM7sL_aVewU0Ig2lxm11-27" value="" style="endArrow=classic;html=1;rounded=0;exitX=0.584;exitY=1;exitDx=0;exitDy=0;exitPerimeter=0;" edge="1" parent="1" source="eM7sL_aVewU0Ig2lxm11-24">
          <mxGeometry width="50" height="50" relative="1" as="geometry">
            <mxPoint x="1280.04" y="450" as="sourcePoint" />
            <mxPoint x="1220" y="390" as="targetPoint" />
          </mxGeometry>
        </mxCell>
        <mxCell id="eM7sL_aVewU0Ig2lxm11-29" value="Actor" style="shape=umlActor;verticalLabelPosition=bottom;verticalAlign=top;html=1;outlineConnect=0;" vertex="1" parent="1">
          <mxGeometry x="1180" y="380" width="30" height="60" as="geometry" />
        </mxCell>
        <mxCell id="eM7sL_aVewU0Ig2lxm11-30" value="" style="endArrow=classic;html=1;rounded=0;exitX=0;exitY=0.833;exitDx=0;exitDy=0;exitPerimeter=0;" edge="1" parent="1" source="eM7sL_aVewU0Ig2lxm11-29" target="eM7sL_aVewU0Ig2lxm11-31">
          <mxGeometry width="50" height="50" relative="1" as="geometry">
            <mxPoint x="1030" y="610" as="sourcePoint" />
            <mxPoint x="1080" y="560" as="targetPoint" />
          </mxGeometry>
        </mxCell>
        <mxCell id="eM7sL_aVewU0Ig2lxm11-31" value="Cancelar reserva" style="rounded=0;whiteSpace=wrap;html=1;" vertex="1" parent="1">
          <mxGeometry x="960" y="400" width="120" height="60" as="geometry" />
        </mxCell>
        <mxCell id="eM7sL_aVewU0Ig2lxm11-32" value="" style="endArrow=classic;html=1;rounded=0;exitX=0.75;exitY=0;exitDx=0;exitDy=0;exitPerimeter=0;" edge="1" parent="1" source="eM7sL_aVewU0Ig2lxm11-31">
          <mxGeometry width="50" height="50" relative="1" as="geometry">
            <mxPoint x="910" y="500" as="sourcePoint" />
            <mxPoint x="1210" y="310" as="targetPoint" />
          </mxGeometry>
        </mxCell>
      </root>
    </mxGraphModel>
  </diagram>
  <diagram id="1lqUJnwW8sHaZhLM_KTn" name="Página-2">
    <mxGraphModel dx="1603" dy="869" grid="1" gridSize="10" guides="1" tooltips="1" connect="1" arrows="1" fold="1" page="1" pageScale="1" pageWidth="1600" pageHeight="1200" math="0" shadow="0">
      <root>
        <mxCell id="0" />
        <mxCell id="1" parent="0" />
        <mxCell id="eEflBqI4hg4rxO4Z05tc-34" value="" style="rounded=0;fillColor=none;strokeColor=#36393d;fontColor=default;html=1;whiteSpace=wrap;labelBackgroundColor=none;labelBorderColor=none;" vertex="1" parent="1">
          <mxGeometry x="720" y="115" width="280" height="570" as="geometry" />
        </mxCell>
        <mxCell id="eEflBqI4hg4rxO4Z05tc-5" value="checar saldo" style="rounded=0;whiteSpace=wrap;html=1;" vertex="1" parent="1">
          <mxGeometry x="800" y="150" width="120" height="60" as="geometry" />
        </mxCell>
        <mxCell id="eEflBqI4hg4rxO4Z05tc-6" value="depositar" style="rounded=0;whiteSpace=wrap;html=1;" vertex="1" parent="1">
          <mxGeometry x="800" y="240" width="120" height="60" as="geometry" />
        </mxCell>
        <mxCell id="eEflBqI4hg4rxO4Z05tc-7" value="sacar" style="rounded=0;whiteSpace=wrap;html=1;" vertex="1" parent="1">
          <mxGeometry x="800" y="330" width="120" height="60" as="geometry" />
        </mxCell>
        <mxCell id="eEflBqI4hg4rxO4Z05tc-11" value="transferir" style="rounded=0;whiteSpace=wrap;html=1;" vertex="1" parent="1">
          <mxGeometry x="800" y="420" width="120" height="60" as="geometry" />
        </mxCell>
        <mxCell id="eEflBqI4hg4rxO4Z05tc-12" value="manutenção" style="rounded=0;whiteSpace=wrap;html=1;" vertex="1" parent="1">
          <mxGeometry x="800" y="510" width="120" height="60" as="geometry" />
        </mxCell>
        <mxCell id="eEflBqI4hg4rxO4Z05tc-13" value="reparo" style="rounded=0;whiteSpace=wrap;html=1;" vertex="1" parent="1">
          <mxGeometry x="800" y="600" width="120" height="60" as="geometry" />
        </mxCell>
        <mxCell id="eEflBqI4hg4rxO4Z05tc-14" value="Joaryceia" style="shape=umlActor;verticalLabelPosition=bottom;verticalAlign=top;html=1;outlineConnect=0;" vertex="1" parent="1">
          <mxGeometry x="630" y="320" width="30" height="60" as="geometry" />
        </mxCell>
        <mxCell id="eEflBqI4hg4rxO4Z05tc-15" value="Actor" style="shape=umlActor;verticalLabelPosition=bottom;verticalAlign=top;html=1;outlineConnect=0;" vertex="1" parent="1">
          <mxGeometry x="630" y="540" width="30" height="60" as="geometry" />
        </mxCell>
        <mxCell id="eEflBqI4hg4rxO4Z05tc-16" value="Actor" style="shape=umlActor;verticalLabelPosition=bottom;verticalAlign=top;html=1;outlineConnect=0;" vertex="1" parent="1">
          <mxGeometry x="1090" y="370" width="30" height="60" as="geometry" />
        </mxCell>
        <mxCell id="eEflBqI4hg4rxO4Z05tc-17" value="" style="endArrow=none;html=1;rounded=0;entryX=0;entryY=1;entryDx=0;entryDy=0;" edge="1" parent="1" target="eEflBqI4hg4rxO4Z05tc-5">
          <mxGeometry width="50" height="50" relative="1" as="geometry">
            <mxPoint x="660" y="330" as="sourcePoint" />
            <mxPoint x="710" y="280" as="targetPoint" />
          </mxGeometry>
        </mxCell>
        <mxCell id="eEflBqI4hg4rxO4Z05tc-19" value="" style="endArrow=none;html=1;rounded=0;entryX=0;entryY=0.833;entryDx=0;entryDy=0;entryPerimeter=0;" edge="1" parent="1" target="eEflBqI4hg4rxO4Z05tc-6">
          <mxGeometry width="50" height="50" relative="1" as="geometry">
            <mxPoint x="660" y="330" as="sourcePoint" />
            <mxPoint x="710" y="310" as="targetPoint" />
          </mxGeometry>
        </mxCell>
        <mxCell id="eEflBqI4hg4rxO4Z05tc-20" value="" style="endArrow=none;html=1;rounded=0;entryX=0;entryY=0.5;entryDx=0;entryDy=0;" edge="1" parent="1" target="eEflBqI4hg4rxO4Z05tc-7">
          <mxGeometry width="50" height="50" relative="1" as="geometry">
            <mxPoint x="660" y="330" as="sourcePoint" />
            <mxPoint x="790" y="250" as="targetPoint" />
          </mxGeometry>
        </mxCell>
        <mxCell id="eEflBqI4hg4rxO4Z05tc-21" value="" style="endArrow=none;html=1;rounded=0;entryX=0;entryY=0.5;entryDx=0;entryDy=0;entryPerimeter=0;" edge="1" parent="1" target="eEflBqI4hg4rxO4Z05tc-11">
          <mxGeometry width="50" height="50" relative="1" as="geometry">
            <mxPoint x="660" y="330" as="sourcePoint" />
            <mxPoint x="770" y="340" as="targetPoint" />
          </mxGeometry>
        </mxCell>
        <mxCell id="eEflBqI4hg4rxO4Z05tc-22" value="" style="endArrow=none;html=1;rounded=0;entryX=0;entryY=0.5;entryDx=0;entryDy=0;entryPerimeter=0;" edge="1" parent="1" target="eEflBqI4hg4rxO4Z05tc-12">
          <mxGeometry width="50" height="50" relative="1" as="geometry">
            <mxPoint x="670" y="560" as="sourcePoint" />
            <mxPoint x="760" y="530" as="targetPoint" />
          </mxGeometry>
        </mxCell>
        <mxCell id="eEflBqI4hg4rxO4Z05tc-24" value="" style="endArrow=none;html=1;rounded=0;entryX=0;entryY=0.5;entryDx=0;entryDy=0;entryPerimeter=0;" edge="1" parent="1" target="eEflBqI4hg4rxO4Z05tc-13">
          <mxGeometry width="50" height="50" relative="1" as="geometry">
            <mxPoint x="670" y="560" as="sourcePoint" />
            <mxPoint x="810" y="550" as="targetPoint" />
          </mxGeometry>
        </mxCell>
        <mxCell id="eEflBqI4hg4rxO4Z05tc-25" value="" style="endArrow=none;html=1;rounded=0;exitX=1;exitY=0.5;exitDx=0;exitDy=0;" edge="1" parent="1" source="eEflBqI4hg4rxO4Z05tc-12">
          <mxGeometry width="50" height="50" relative="1" as="geometry">
            <mxPoint x="1020" y="440" as="sourcePoint" />
            <mxPoint x="1090" y="400" as="targetPoint" />
          </mxGeometry>
        </mxCell>
        <mxCell id="eEflBqI4hg4rxO4Z05tc-26" value="" style="endArrow=none;html=1;rounded=0;exitX=1;exitY=0.5;exitDx=0;exitDy=0;exitPerimeter=0;" edge="1" parent="1" source="eEflBqI4hg4rxO4Z05tc-11">
          <mxGeometry width="50" height="50" relative="1" as="geometry">
            <mxPoint x="980" y="520" as="sourcePoint" />
            <mxPoint x="1090" y="400" as="targetPoint" />
          </mxGeometry>
        </mxCell>
        <mxCell id="eEflBqI4hg4rxO4Z05tc-28" value="" style="endArrow=none;html=1;rounded=0;exitX=1;exitY=0.5;exitDx=0;exitDy=0;exitPerimeter=0;" edge="1" parent="1" source="eEflBqI4hg4rxO4Z05tc-7">
          <mxGeometry width="50" height="50" relative="1" as="geometry">
            <mxPoint x="1010" y="410" as="sourcePoint" />
            <mxPoint x="1090" y="400" as="targetPoint" />
          </mxGeometry>
        </mxCell>
        <mxCell id="eEflBqI4hg4rxO4Z05tc-29" value="" style="endArrow=none;html=1;rounded=0;entryX=1;entryY=0.667;entryDx=0;entryDy=0;entryPerimeter=0;" edge="1" parent="1" target="eEflBqI4hg4rxO4Z05tc-6">
          <mxGeometry width="50" height="50" relative="1" as="geometry">
            <mxPoint x="1090" y="400" as="sourcePoint" />
            <mxPoint x="1070" y="300" as="targetPoint" />
          </mxGeometry>
        </mxCell>
        <mxCell id="eEflBqI4hg4rxO4Z05tc-30" value="" style="endArrow=none;html=1;rounded=0;exitX=1;exitY=0.75;exitDx=0;exitDy=0;" edge="1" parent="1" source="eEflBqI4hg4rxO4Z05tc-5">
          <mxGeometry width="50" height="50" relative="1" as="geometry">
            <mxPoint x="970" y="250" as="sourcePoint" />
            <mxPoint x="1090" y="400" as="targetPoint" />
          </mxGeometry>
        </mxCell>
        <mxCell id="eEflBqI4hg4rxO4Z05tc-32" value="" style="endArrow=none;html=1;rounded=0;exitX=1;exitY=0.333;exitDx=0;exitDy=0;exitPerimeter=0;" edge="1" parent="1" source="eEflBqI4hg4rxO4Z05tc-13">
          <mxGeometry width="50" height="50" relative="1" as="geometry">
            <mxPoint x="920" y="620" as="sourcePoint" />
            <mxPoint x="1090" y="400" as="targetPoint" />
          </mxGeometry>
        </mxCell>
        <mxCell id="eEflBqI4hg4rxO4Z05tc-35" value="Sistema de caixa eletrônico&amp;nbsp;" style="text;html=1;align=center;verticalAlign=middle;resizable=0;points=[];autosize=1;strokeColor=none;fillColor=none;" vertex="1" parent="1">
          <mxGeometry x="775" y="115" width="170" height="30" as="geometry" />
        </mxCell>
      </root>
    </mxGraphModel>
  </diagram>
</mxfile>
